# Blender v2.74 (sub 0) OBJ File: ''
# www.blender.org
mtllib untitled-scene.mtl
o Cylinder
v 0.000000 0.450000 2.000000
v 0.517600 0.450000 1.932000
v 1.000000 0.450000 1.732000
v 1.414400 0.450000 1.414400
v 1.732000 0.450000 1.000000
v 1.932000 0.450000 0.517600
v 2.000000 0.450000 0.000000
v 1.932000 0.450000 -0.517600
v 1.732000 0.450000 -1.000000
v 1.414400 0.450000 -1.414400
v 1.000000 0.450000 -1.732000
v 0.517600 0.450000 -1.932000
v 0.000000 0.450000 -2.000000
v -0.517600 0.450000 -1.932000
v -1.000000 0.450000 -1.732000
v -1.414400 0.450000 -1.414400
v -1.732000 0.450000 -1.000000
v -1.932000 0.450000 -0.517600
v -2.000000 0.450000 0.000000
v -1.932000 0.450000 0.517600
v -1.732000 0.450000 1.000000
v -1.414400 0.450000 1.414400
v -1.000000 0.450000 1.732000
v -0.517600 0.450000 1.932000
v 0.000000 -0.450000 2.000000
v 0.517600 -0.450000 1.932000
v 1.000000 -0.450000 1.732000
v 1.414400 -0.450000 1.414400
v 1.732000 -0.450000 1.000000
v 1.932000 -0.450000 0.517600
v 2.000000 -0.450000 0.000000
v 1.932000 -0.450000 -0.517600
v 1.732000 -0.450000 -1.000000
v 1.414400 -0.450000 -1.414400
v 1.000000 -0.450000 -1.732000
v 0.517600 -0.450000 -1.932000
v 0.000000 -0.450000 -2.000000
v -0.517600 -0.450000 -1.932000
v -1.000000 -0.450000 -1.732000
v -1.414400 -0.450000 -1.414400
v -1.732000 -0.450000 -1.000000
v -1.932000 -0.450000 -0.517600
v -2.000000 -0.450000 0.000000
v -1.932000 -0.450000 0.517600
v -1.732000 -0.450000 1.000000
v -1.414400 -0.450000 1.414400
v -1.000000 -0.450000 1.732000
v -0.517600 -0.450000 1.932000
v 0.000000 0.450000 0.000000
v 0.000000 -0.450000 0.000000
vt 0.000000 1.010377
vt 0.000000 0.689623
vt 0.070823 0.689623
vt 0.070823 1.010377
vt 0.141670 0.689623
vt 0.141670 1.010377
vt 0.212500 0.689623
vt 0.212500 1.010377
vt 0.283330 0.689623
vt 0.283330 1.010377
vt 0.354177 0.689623
vt 0.354177 1.010377
vt 0.425000 0.689623
vt 0.425000 1.010377
vt 0.495823 0.689623
vt 0.495823 1.010377
vt 0.566670 0.689623
vt 0.566670 1.010377
vt 0.637500 0.689623
vt 0.637500 1.010377
vt 0.708330 0.689623
vt 0.708330 1.010377
vt 0.779177 0.689623
vt 0.779177 1.010377
vt 0.850000 0.689623
vt 0.850000 1.010377
vt 0.920823 0.689623
vt 0.920823 1.010377
vt 0.991670 0.689623
vt 0.991670 1.010377
vt 1.062500 0.689623
vt 1.062500 1.010377
vt 1.133330 0.689623
vt 1.133330 1.010377
vt 1.204177 0.689623
vt 1.204177 1.010377
vt 1.275000 0.689623
vt 1.275000 1.010377
vt 1.345823 0.689623
vt 1.345823 1.010377
vt 1.416670 0.689623
vt 1.416670 1.010377
vt 1.487500 0.689623
vt 1.487500 1.010377
vt 1.558330 0.689623
vt 1.558330 1.010377
vt 1.629177 0.689623
vt 1.629177 1.010377
vt 0.074800 0.458333
vt 0.074800 0.041667
vt 0.000000 0.041667
vt 0.000000 0.458333
vt 0.500000 0.166667
vt 0.586267 0.178000
vt 0.500000 0.500000
vt 0.666667 0.211333
vt 0.735733 0.264267
vt 0.788667 0.333333
vt 0.822000 0.413733
vt 0.833333 0.500000
vt 0.822000 0.586267
vt 0.788667 0.666667
vt 0.735733 0.735733
vt 0.666667 0.788667
vt 0.586267 0.822000
vt 0.500000 0.833333
vt 0.413733 0.822000
vt 0.333333 0.788667
vt 0.264267 0.735733
vt 0.211333 0.666667
vt 0.178000 0.586267
vt 0.166667 0.500000
vt 0.178000 0.413733
vt 0.211333 0.333333
vt 0.264267 0.264267
vt 0.333333 0.211333
vt 0.413733 0.178000
vt 1.541661 0.000000
vt 0.500000 0.000000
vt 1.000000 0.000000
vt 1.583335 0.000000
vt 0.541661 0.000000
vt 0.625000 0.000000
vt 0.583335 0.000000
vt 0.666665 0.000000
vt 0.708339 0.000000
vt 0.750000 0.000000
vt 0.791661 0.000000
vt 0.833335 0.000000
vt 0.875000 0.000000
vt 0.916665 0.000000
vt 0.958339 0.000000
vt 0.041661 0.000000
vt 0.000000 0.000000
vt 0.083335 0.000000
vt 0.125000 0.000000
vt 0.166665 0.000000
vt 0.208339 0.000000
vt 0.250000 0.000000
vt 0.291661 0.000000
vt 0.333335 0.000000
vt 0.375000 0.000000
vt 0.416665 0.000000
vt 1.458339 0.000000
vt 1.500000 0.000000
vt 0.458339 0.000000
vn 0.000000 0.000000 1.000000
vn 0.258800 0.000000 0.965900
vn 0.499900 0.000000 0.866100
vn 0.707100 0.000000 0.707100
vn 0.866100 0.000000 0.499900
vn 0.965900 0.000000 0.258800
vn 1.000000 0.000000 0.000000
vn 0.965900 0.000000 -0.258800
vn 0.866100 0.000000 -0.499900
vn 0.707100 0.000000 -0.707100
vn 0.499900 0.000000 -0.866100
vn 0.258800 0.000000 -0.965900
vn 0.000000 0.000000 -1.000000
vn -0.258800 0.000000 -0.965900
vn -0.499900 0.000000 -0.866100
vn -0.707100 0.000000 -0.707100
vn -0.866100 0.000000 -0.499900
vn -0.965900 0.000000 -0.258800
vn -1.000000 0.000000 0.000000
vn -0.965900 0.000000 0.258800
vn -0.866100 0.000000 0.499900
vn -0.707100 0.000000 0.707100
vn -0.499900 0.000000 0.866100
vn -0.258800 0.000000 0.965900
vn 0.000000 1.000000 0.000000
vn 0.000000 -1.000000 0.000000
usemtl Standard
s 1
f 1/1/1 25/2/1 26/3/2 2/4/2
f 2/4/2 26/3/2 27/5/3 3/6/3
f 3/6/3 27/5/3 28/7/4 4/8/4
f 4/8/4 28/7/4 29/9/5 5/10/5
f 5/10/5 29/9/5 30/11/6 6/12/6
f 6/12/6 30/11/6 31/13/7 7/14/7
f 7/14/7 31/13/7 32/15/8 8/16/8
f 8/16/8 32/15/8 33/17/9 9/18/9
f 9/18/9 33/17/9 34/19/10 10/20/10
f 10/20/10 34/19/10 35/21/11 11/22/11
f 11/22/11 35/21/11 36/23/12 12/24/12
f 12/24/12 36/23/12 37/25/13 13/26/13
f 13/26/13 37/25/13 38/27/14 14/28/14
f 14/28/14 38/27/14 39/29/15 15/30/15
f 15/30/15 39/29/15 40/31/16 16/32/16
f 16/32/16 40/31/16 41/33/17 17/34/17
f 17/34/17 41/33/17 42/35/18 18/36/18
f 18/36/18 42/35/18 43/37/19 19/38/19
f 19/38/19 43/37/19 44/39/20 20/40/20
f 20/40/20 44/39/20 45/41/21 21/42/21
f 21/42/21 45/41/21 46/43/22 22/44/22
f 22/44/22 46/43/22 47/45/23 23/46/23
f 23/46/23 47/45/23 48/47/24 24/48/24
f 24/49/24 48/50/24 25/51/1 1/52/1
f 1/53/25 2/54/25 49/55/25
f 2/54/25 3/56/25 49/55/25
f 3/56/25 4/57/25 49/55/25
f 4/57/25 5/58/25 49/55/25
f 5/58/25 6/59/25 49/55/25
f 6/59/25 7/60/25 49/55/25
f 7/60/25 8/61/25 49/55/25
f 8/61/25 9/62/25 49/55/25
f 9/62/25 10/63/25 49/55/25
f 10/63/25 11/64/25 49/55/25
f 11/64/25 12/65/25 49/55/25
f 12/65/25 13/66/25 49/55/25
f 13/66/25 14/67/25 49/55/25
f 14/67/25 15/68/25 49/55/25
f 15/68/25 16/69/25 49/55/25
f 16/69/25 17/70/25 49/55/25
f 17/70/25 18/71/25 49/55/25
f 18/71/25 19/72/25 49/55/25
f 19/72/25 20/73/25 49/55/25
f 20/73/25 21/74/25 49/55/25
f 21/74/25 22/75/25 49/55/25
f 22/75/25 23/76/25 49/55/25
f 23/76/25 24/77/25 49/55/25
f 24/77/25 1/53/25 49/55/25
f 26/78/26 25/79/26 50/80/26
f 27/81/26 26/82/26 50/80/26
f 28/83/26 27/84/26 50/80/26
f 29/85/26 28/83/26 50/80/26
f 30/86/26 29/85/26 50/80/26
f 31/87/26 30/86/26 50/80/26
f 32/88/26 31/87/26 50/80/26
f 33/89/26 32/88/26 50/80/26
f 34/90/26 33/89/26 50/80/26
f 35/91/26 34/90/26 50/80/26
f 36/92/26 35/91/26 50/80/26
f 37/80/26 36/92/26 50/80/26
f 38/93/26 37/94/26 50/94/26
f 39/95/26 38/93/26 50/94/26
f 40/96/26 39/95/26 50/94/26
f 41/97/26 40/96/26 50/94/26
f 42/98/26 41/97/26 50/94/26
f 43/99/26 42/98/26 50/94/26
f 44/100/26 43/99/26 50/94/26
f 45/101/26 44/100/26 50/94/26
f 46/102/26 45/101/26 50/94/26
f 47/103/26 46/102/26 50/80/26
f 48/104/26 47/103/26 50/80/26
f 25/105/26 48/106/26 50/80/26
